# xmcd
#
# Track frame offsets: 
#        150
#        11042
#        23622
#        35127
#        46140
#        58222
#        70057
#        80635
#        93204
#        103645
#        114447
#        126950
#        138415
#        152022
#        163447
#        174575
#        187427
#        200272
#        212077
#        223687
#        236625
#        247867
#        258355
#        269387
#
# Disc length: 3754 seconds
#
# Revision: 2
# Processed by: cddbd v1.5.2PL0 Copyright (c) Steve Scherf et al.
# Submitted via: ExactAudioCopyFreeDBPlugin 1.0
#
DISCID=600ea818
DTITLE=Hank Thompson - Humpty Dumpty Heart
DYEAR=2001
DGENRE=Country
TTITLE0=Humpty Dumty Heart
TTITLE1=Yesterdays Mail
TTITLE2=Green Light
TTITLE3=What Are We Gonna Do About The Moonlight
TTITLE4=I Find You Cheatin On Me
TTITLE5=You Broke My Heart
TTITLE6=Whoa Sailor
TTITLE7=Soft Lips
TTITLE8=The Grass Looks Greener Over Yonder
TTITLE9=Swing Wide Your Gate Of Love
TTITLE10=A Lonely Heart Knows
TTITLE11=Starry Eyed Texas Gal
TTITLE12=Today
TTITLE13=Dont Flirt With Me
TTITLE14=Rock In The Ocean
TTITLE15=My Heart Is A Jigsaw Puzzle
TTITLE16=Second Hand Girl
TTITLE17=Mary Had A Little Lamb
TTITLE18=You Remembered Me
TTITLE19=Colifornia Women
TTITLE20=All That Goes Up Must Come Down
TTITLE21=Standing On The Outside Looking In Now
TTITLE22=My Front Door Is Open
TTITLE23=Tomorrow Night
EXTD=
EXTT0=
EXTT1=
EXTT2=
EXTT3=
EXTT4=
EXTT5=
EXTT6=
EXTT7=
EXTT8=
EXTT9=
EXTT10=
EXTT11=
EXTT12=
EXTT13=
EXTT14=
EXTT15=
EXTT16=
EXTT17=
EXTT18=
EXTT19=
EXTT20=
EXTT21=
EXTT22=
EXTT23=
PLAYORDER=
